<svg xmlns="http://www.w3.org/2000/svg" version="1.1" xmlns:xlink="http://www.w3.org/1999/xlink" xmlns:svgjs="http://svgjs.dev/svgjs" width="2000" height="333" viewBox="0 0 2000 333"><g transform="matrix(1,0,0,1,-1.2121212121212466,-0.3771756077942712)"><svg viewBox="0 0 396 66" data-background-color="#ffffff" preserveAspectRatio="xMidYMid meet" height="333" width="2000" xmlns="http://www.w3.org/2000/svg" xmlns:xlink="http://www.w3.org/1999/xlink"><g id="tight-bounds" transform="matrix(1,0,0,1,0.2400000000000091,0.07475552586913636)"><svg viewBox="0 0 395.52 65.85048894826171" height="65.85048894826171" width="395.52"><g><svg viewBox="0 0 491.30980273702903 81.79862139792519" height="65.85048894826171" width="395.52"><g transform="matrix(1,0,0,1,95.78980273702904,11.305019310422363)"><svg viewBox="0 0 395.52 59.18858277708046" height="59.18858277708046" width="395.52"><g id="textblocktransform"><svg viewBox="0 0 395.52 59.18858277708046" height="59.18858277708046" width="395.52" id="textblock"><g><svg viewBox="0 0 395.52 59.18858277708046" height="59.18858277708046" width="395.52"><g transform="matrix(1,0,0,1,0,0)"><svg width="395.52" viewBox="4.45 -37.85 263.9336083984375 39.5" height="59.18858277708046" data-palette-color="#dd3a5d"><g transform="matrix(1,0,0,1,0,0)"><g><svg width="17.669072265624997" viewBox="1.78 -36.36 74.21 36.36" height="8.657" data-palette-color="#dd3a5d" id="scriptelement" x="250.7145361328125" y="-37.85"><path d="M12.91-30.02L1.78-30.02 1.78-36.36 31.64-36.36 31.64-30.02 20.51-30.02 20.51 0 12.91 0 12.91-30.02ZM36.57 0L36.57-36.36 46.06-36.36 56.07-11.93 56.5-11.93 66.51-36.36 75.99-36.36 75.99 0 68.53 0 68.53-23.67 68.23-23.67 58.82-0.18 53.74-0.18 44.33-23.76 44.03-23.76 44.03 0 36.57 0Z" opacity="1" transform="matrix(1,0,0,1,0,0)" fill="#dd3a5d" class="undefined-123" data-fill-palette-color="primary" id="lv-123"></path></svg></g></g><path d="M4.45 0L4.45-37.85Q4.9-37.15 6.33-35.18 7.75-33.2 9.63-30.6 11.5-28 13.6-25.08 15.7-22.15 17.55-19.58 19.4-17 20.78-15.1 22.15-13.2 22.6-12.6L22.6-12.6Q22.75-12.85 23.55-13.95 24.35-15.05 25.53-16.7 26.7-18.35 28.2-20.43 29.7-22.5 31.28-24.68 32.85-26.85 34.38-29 35.9-31.15 37.2-32.93 38.5-34.7 39.43-36.02 40.35-37.35 40.75-37.85L40.75-37.85 40.75 0 34.95 0 34.95-20.3Q34.95-20.7 35.02-21.15 35.1-21.6 35.1-21.8L35.1-21.8Q34.65-21.2 33.68-19.78 32.7-18.35 31.43-16.53 30.15-14.7 28.75-12.68 27.35-10.65 26.1-8.85 24.85-7.05 23.9-5.68 22.95-4.3 22.6-3.75L22.6-3.75Q22.25-4.2 21.23-5.63 20.2-7.05 18.82-8.95 17.45-10.85 15.93-13 14.4-15.15 13.1-17 11.8-18.85 10.85-20.18 9.9-21.5 9.75-21.8L9.75-21.8Q9.75-21.6 9.83-21.15 9.9-20.7 9.9-20.3L9.9-20.3 9.9 0 4.45 0ZM45.75-10.5L45.75-10.5Q45.75-12.75 46.62-14.75 47.5-16.75 49-18.23 50.5-19.7 52.52-20.58 54.55-21.45 56.9-21.45L56.9-21.45Q59.25-21.45 61.27-20.58 63.3-19.7 64.77-18.23 66.25-16.75 67.07-14.75 67.9-12.75 67.9-10.5L67.9-10.5Q67.9-8.25 67.07-6.25 66.25-4.25 64.77-2.75 63.3-1.25 61.27-0.38 59.25 0.5 56.85 0.5L56.85 0.5Q54.55 0.5 52.52-0.3 50.5-1.1 49-2.55 47.5-4 46.62-6.03 45.75-8.05 45.75-10.5ZM50-10.45L50-10.45Q50-9.05 50.52-7.83 51.05-6.6 51.97-5.68 52.9-4.75 54.12-4.23 55.35-3.7 56.75-3.7L56.75-3.7Q58.15-3.7 59.4-4.23 60.65-4.75 61.57-5.68 62.5-6.6 63.05-7.83 63.6-9.05 63.6-10.45L63.6-10.45Q63.6-11.85 63.05-13.1 62.5-14.35 61.57-15.28 60.65-16.2 59.4-16.73 58.15-17.25 56.75-17.25L56.75-17.25Q55.35-17.25 54.12-16.73 52.9-16.2 51.97-15.28 51.05-14.35 50.52-13.1 50-11.85 50-10.45ZM79.85 1.25L79.85 1.25Q76.9-4.35 74.32-9.83 71.75-15.3 68.9-20.9L68.9-20.9 73.55-20.9Q75.35-17.35 76.42-15.1 77.5-12.85 78.15-11.35 78.8-9.85 79.15-8.83 79.5-7.8 79.85-6.75L79.85-6.75Q80.25-7.8 80.62-8.83 81-9.85 81.62-11.35 82.25-12.85 83.32-15.1 84.4-17.35 86.2-20.9L86.2-20.9 90.85-20.9Q88-15.3 85.35-9.83 82.7-4.35 79.85 1.25ZM93.39-28.9L93.39-28.9Q93.39-30.1 94.27-30.9 95.14-31.7 96.14-31.7L96.14-31.7Q97.14-31.7 97.99-30.9 98.84-30.1 98.84-28.9L98.84-28.9Q98.84-27.7 97.99-26.93 97.14-26.15 96.14-26.15L96.14-26.15Q95.14-26.15 94.27-26.93 93.39-27.7 93.39-28.9ZM98.19-20.9L98.19 0 93.94 0 93.94-20.9 98.19-20.9ZM118.69-5.55L121.89-2.45Q120.39-1.1 118.24-0.3 116.09 0.5 113.84 0.5L113.84 0.5Q111.54 0.5 109.52-0.38 107.49-1.25 105.99-2.73 104.49-4.2 103.62-6.2 102.74-8.2 102.74-10.45L102.74-10.45Q102.74-12.7 103.62-14.7 104.49-16.7 105.99-18.2 107.49-19.7 109.47-20.58 111.44-21.45 113.69-21.45L113.69-21.45Q117.24-21.45 119.87-19.33 122.49-17.2 123.64-13.75L123.64-13.75Q122.09-13.2 120.09-12.4 118.09-11.6 115.94-10.73 113.79-9.85 111.64-9 109.49-8.15 107.64-7.45L107.64-7.45Q108.49-5.75 110.12-4.73 111.74-3.7 113.74-3.7L113.74-3.7Q115.09-3.7 116.47-4.2 117.84-4.7 118.69-5.55L118.69-5.55ZM118.29-14.75L118.29-14.75Q117.69-16 116.39-16.63 115.09-17.25 113.74-17.25L113.74-17.25Q112.29-17.25 111.07-16.7 109.84-16.15 108.94-15.23 108.04-14.3 107.52-13.1 106.99-11.9 106.99-10.65L106.99-10.65Q106.99-10.4 107.02-10.3 107.04-10.2 107.04-10.15L107.04-10.15Q108.34-10.65 109.87-11.28 111.39-11.9 112.89-12.53 114.39-13.15 115.79-13.73 117.19-14.3 118.29-14.75ZM138.99-19.05L138.99-19.05 136.74-16.05Q136.69-16.1 136.39-16.3 136.09-16.5 135.61-16.7 135.14-16.9 134.51-17.07 133.89-17.25 133.24-17.25L133.24-17.25Q132.39-17.25 131.56-16.85 130.74-16.45 130.74-15.35L130.74-15.35Q130.74-14.4 131.41-13.8 132.09-13.2 133.09-12.73 134.09-12.25 135.26-11.75 136.44-11.25 137.44-10.53 138.44-9.8 139.11-8.72 139.79-7.65 139.79-6L139.79-6Q139.79-3.2 137.86-1.38 135.94 0.45 132.59 0.45L132.59 0.45Q130.64 0.45 128.76-0.23 126.89-0.9 125.74-2.2L125.74-2.2Q126.09-2.55 126.51-3.1 126.94-3.65 127.36-4.15 127.79-4.65 128.06-4.98 128.34-5.3 128.39-5.3L128.39-5.3Q128.39-5.25 128.76-5 129.14-4.75 129.74-4.48 130.34-4.2 131.09-3.98 131.84-3.75 132.59-3.75L132.59-3.75Q133.79-3.75 134.64-4.35 135.49-4.95 135.49-5.95L135.49-5.95Q135.49-6.85 134.81-7.38 134.14-7.9 133.14-8.35 132.14-8.8 130.94-9.28 129.74-9.75 128.74-10.5 127.74-11.25 127.06-12.38 126.39-13.5 126.39-15.3L126.39-15.3Q126.39-17 127.01-18.15 127.64-19.3 128.61-20.03 129.59-20.75 130.79-21.08 131.99-21.4 133.09-21.4L133.09-21.4Q134.54-21.4 136.19-20.8 137.84-20.2 138.99-19.05ZM136.59-36.25L141.99-36.25Q142.34-35.4 143.14-33.48 143.94-31.55 144.96-29.1 145.99-26.65 147.11-23.9 148.24-21.15 149.24-18.7 150.24-16.25 151.04-14.33 151.84-12.4 152.19-11.55L152.19-11.55Q152.24-11.45 152.44-10.85 152.64-10.25 152.74-9.8L152.74-9.8 153.24-11.55Q153.59-12.4 154.39-14.33 155.19-16.25 156.19-18.7 157.19-21.15 158.31-23.9 159.44-26.65 160.46-29.1 161.49-31.55 162.29-33.48 163.09-35.4 163.44-36.25L163.44-36.25 168.84-36.25Q168.54-35.55 167.76-33.73 166.99-31.9 165.89-29.3 164.79-26.7 163.46-23.6 162.14-20.5 160.76-17.3 159.39-14.1 158.06-11 156.74-7.9 155.66-5.3 154.59-2.7 153.81-0.88 153.04 0.95 152.74 1.65L152.74 1.65 136.59-36.25ZM181.23-5.55L184.43-2.45Q182.93-1.1 180.78-0.3 178.63 0.5 176.38 0.5L176.38 0.5Q174.08 0.5 172.06-0.38 170.03-1.25 168.53-2.73 167.03-4.2 166.16-6.2 165.28-8.2 165.28-10.45L165.28-10.45Q165.28-12.7 166.16-14.7 167.03-16.7 168.53-18.2 170.03-19.7 172.01-20.58 173.98-21.45 176.23-21.45L176.23-21.45Q179.78-21.45 182.41-19.33 185.03-17.2 186.18-13.75L186.18-13.75Q184.63-13.2 182.63-12.4 180.63-11.6 178.48-10.73 176.33-9.85 174.18-9 172.03-8.15 170.18-7.45L170.18-7.45Q171.03-5.75 172.66-4.73 174.28-3.7 176.28-3.7L176.28-3.7Q177.63-3.7 179.01-4.2 180.38-4.7 181.23-5.55L181.23-5.55ZM180.83-14.75L180.83-14.75Q180.23-16 178.93-16.63 177.63-17.25 176.28-17.25L176.28-17.25Q174.83-17.25 173.61-16.7 172.38-16.15 171.48-15.23 170.58-14.3 170.06-13.1 169.53-11.9 169.53-10.65L169.53-10.65Q169.53-10.4 169.56-10.3 169.58-10.2 169.58-10.15L169.58-10.15Q170.88-10.65 172.41-11.28 173.93-11.9 175.43-12.53 176.93-13.15 178.33-13.73 179.73-14.3 180.83-14.75ZM202.33-21.45L201.38-15.95Q199.98-15.95 198.68-15.58 197.38-15.2 196.36-14.45 195.33-13.7 194.73-12.58 194.13-11.45 194.13-10L194.13-10 194.13 0 189.88 0 189.88-20.9 193.63-20.9Q193.73-19.35 193.81-18.07 193.88-16.8 193.98-15.55L193.98-15.55Q194.63-16.9 195.68-18 196.73-19.1 197.93-19.85 199.13-20.6 200.28-21.03 201.43-21.45 202.33-21.45L202.33-21.45ZM217.08-19.05L217.08-19.05 214.83-16.05Q214.78-16.1 214.48-16.3 214.18-16.5 213.7-16.7 213.23-16.9 212.6-17.07 211.98-17.25 211.33-17.25L211.33-17.25Q210.48-17.25 209.65-16.85 208.83-16.45 208.83-15.35L208.83-15.35Q208.83-14.4 209.5-13.8 210.18-13.2 211.18-12.73 212.18-12.25 213.35-11.75 214.53-11.25 215.53-10.53 216.53-9.8 217.2-8.72 217.88-7.65 217.88-6L217.88-6Q217.88-3.2 215.95-1.38 214.03 0.45 210.68 0.45L210.68 0.45Q208.73 0.45 206.85-0.23 204.98-0.9 203.83-2.2L203.83-2.2Q204.18-2.55 204.6-3.1 205.03-3.65 205.45-4.15 205.88-4.65 206.15-4.98 206.43-5.3 206.48-5.3L206.48-5.3Q206.48-5.25 206.85-5 207.23-4.75 207.83-4.48 208.43-4.2 209.18-3.98 209.93-3.75 210.68-3.75L210.68-3.75Q211.88-3.75 212.73-4.35 213.58-4.95 213.58-5.95L213.58-5.95Q213.58-6.85 212.9-7.38 212.23-7.9 211.23-8.35 210.23-8.8 209.03-9.28 207.83-9.75 206.83-10.5 205.83-11.25 205.15-12.38 204.48-13.5 204.48-15.3L204.48-15.3Q204.48-17 205.1-18.15 205.73-19.3 206.7-20.03 207.68-20.75 208.88-21.08 210.08-21.4 211.18-21.4L211.18-21.4Q212.63-21.4 214.28-20.8 215.93-20.2 217.08-19.05ZM236.93-5.55L240.13-2.45Q238.63-1.1 236.48-0.3 234.33 0.5 232.08 0.5L232.08 0.5Q229.78 0.5 227.75-0.38 225.73-1.25 224.23-2.73 222.73-4.2 221.85-6.2 220.98-8.2 220.98-10.45L220.98-10.45Q220.98-12.7 221.85-14.7 222.73-16.7 224.23-18.2 225.73-19.7 227.7-20.58 229.68-21.45 231.93-21.45L231.93-21.45Q235.48-21.45 238.1-19.33 240.73-17.2 241.88-13.75L241.88-13.75Q240.33-13.2 238.33-12.4 236.33-11.6 234.18-10.73 232.03-9.85 229.88-9 227.73-8.15 225.88-7.45L225.88-7.45Q226.73-5.75 228.35-4.73 229.98-3.7 231.98-3.7L231.98-3.7Q233.33-3.7 234.7-4.2 236.08-4.7 236.93-5.55L236.93-5.55ZM236.53-14.75L236.53-14.75Q235.93-16 234.63-16.63 233.33-17.25 231.98-17.25L231.98-17.25Q230.53-17.25 229.3-16.7 228.08-16.15 227.18-15.23 226.28-14.3 225.75-13.1 225.23-11.9 225.23-10.65L225.23-10.65Q225.23-10.4 225.25-10.3 225.28-10.2 225.28-10.15L225.28-10.15Q226.58-10.65 228.1-11.28 229.63-11.9 231.13-12.53 232.63-13.15 234.03-13.73 235.43-14.3 236.53-14.75Z" opacity="1" transform="matrix(1,0,0,1,0,0)" fill="#dd3a5d" class="wordmark-text-0" data-fill-palette-color="primary" id="text-0"></path></svg></g></svg></g></svg></g></svg></g><g><svg viewBox="0 0 81.81679886934698 81.79862139792519" height="81.79862139792519" width="81.81679886934698"><g><svg xmlns="http://www.w3.org/2000/svg" xmlns:xlink="http://www.w3.org/1999/xlink" version="1.1" x="0" y="0" viewBox="13.991999999999997 14 72.01600000000002 72" enable-background="new 0 0 100 100" xml:space="preserve" height="81.79862139792519" width="81.81679886934698" class="icon-icon-0" data-fill-palette-color="accent" id="icon-0"><g fill="#e55940" data-fill-palette-color="accent"><path fill="#e55940" d="M49.992 14c-19.86 0-36 16.14-36 36 0 19.74 15.9 35.76 35.58 36 0.06 0 0.06 0 0.12 0h0.3 35.161c1.14 0 1.14-1.62 0-1.62h-24.54c14.699-4.5 25.38-18.18 25.38-34.38C85.993 30.14 69.853 14 49.992 14L49.992 14zM49.992 15.62c19.021 0 34.381 15.36 34.381 34.38 0 19.02-15.36 34.38-34.381 34.38-19.02 0-34.38-15.36-34.38-34.38C15.612 30.98 30.972 15.62 49.992 15.62L49.992 15.62zM49.992 19.28c-16.98 0-30.72 13.74-30.72 30.72 0 16.98 13.74 30.72 30.72 30.72 16.98 0 30.721-13.739 30.721-30.72C80.713 33.02 66.973 19.28 49.992 19.28L49.992 19.28zM49.992 20.9c16.081 0 29.101 13.02 29.101 29.1s-13.02 29.1-29.101 29.1c-16.08 0-29.1-13.02-29.1-29.1S33.913 20.9 49.992 20.9L49.992 20.9zM49.992 23.72c-4.98 0-9 4.02-9 9s4.02 9 9 9c4.98 0 9.001-4.02 9.001-9S54.973 23.72 49.992 23.72L49.992 23.72zM49.992 25.28c4.141 0 7.44 3.3 7.44 7.44 0 4.08-3.3 7.44-7.44 7.44-4.14 0-7.44-3.36-7.44-7.44C42.552 28.58 45.853 25.28 49.992 25.28L49.992 25.28zM32.712 41c-4.98 0-9 4.02-9 9 0 4.98 4.02 9 9 9s9-4.02 9-9C41.712 45.02 37.692 41 32.712 41L32.712 41zM67.272 41c-4.979 0-9 4.02-9 9 0 4.98 4.021 9 9 9 4.98 0 9-4.02 9-9C76.272 45.02 72.253 41 67.272 41L67.272 41zM32.712 42.56c4.08 0 7.44 3.3 7.44 7.44 0 4.14-3.36 7.44-7.44 7.44-4.14 0-7.44-3.301-7.44-7.44C25.272 45.86 28.572 42.56 32.712 42.56L32.712 42.56zM67.272 42.56c4.141 0 7.44 3.3 7.44 7.44 0 4.14-3.3 7.44-7.44 7.44-4.08 0-7.439-3.301-7.439-7.44C59.833 45.86 63.192 42.56 67.272 42.56L67.272 42.56zM49.992 58.28c-4.98 0-9 4.02-9 9 0 4.979 4.02 9 9 9 4.98 0 9.001-4.021 9.001-9C58.993 62.3 54.973 58.28 49.992 58.28L49.992 58.28zM49.992 59.84c4.141 0 7.44 3.36 7.44 7.44 0 4.14-3.3 7.439-7.44 7.439-4.14 0-7.44-3.3-7.44-7.439C42.552 63.2 45.853 59.84 49.992 59.84L49.992 59.84z" data-fill-palette-color="accent"></path></g></svg></g></svg></g></svg></g><defs></defs></svg><rect width="395.52" height="65.85048894826171" fill="none" stroke="none" visibility="hidden"></rect></g></svg></g></svg>